# xmcd
#
# Track frame offsets: 
#        150
#        22483
#        35205
#        53233
#        68988
#        79256
#        98759
#        114102
#        129389
#
# Disc length: 1843 seconds
#
# Revision: 0
# Processed by: cddbd v1.5.2PL0 Copyright (c) Steve Scherf et al.
# Submitted via: ExactAudioCopyFreeDBPlugin 1.0
#
DISCID=7b073109
DTITLE=Hank and Ann Neufeld - Gott es Leew No.4
DYEAR=1900
DGENRE=Plattdeutsch
TTITLE0=Gott es Leew
TTITLE1=Leew deen Noba
TTITLE2=Nuscht aus dot Bloot fon Jesus
TTITLE3=Hea Vee en Maun
TTITLE4=Ekj Naem mi fea
TTITLE5=Ess doa ne Zeel
TTITLE6=Wua go ekj han
TTITLE7=Gott zeene Gnod
TTITLE8=Out zeene Leew
EXTD=
EXTT0=
EXTT1=
EXTT2=
EXTT3=
EXTT4=
EXTT5=
EXTT6=
EXTT7=
EXTT8=
PLAYORDER=
